<svg xmlns="http://www.w3.org/2000/svg" viewBox="0 0 24 24" fill="#2563eb">
  <path d="M12 2C15.3137 2 18 4.68629 18 8C18 11.3137 15.3137 14 12 14C8.68629 14 6 11.3137 6 8C6 4.68629 8.68629 2 12 2ZM4.5 12C6.433 12 8 13.567 8 15.5C8 17.433 6.433 19 4.5 19C2.567 19 1 17.433 1 15.5C1 13.567 2.567 12 4.5 12ZM19.5 12C21.433 12 23 13.567 23 15.5C23 17.433 21.433 19 19.5 19C17.567 19 16 17.433 16 15.5C16 13.567 17.567 12 19.5 12ZM12 16C14.2091 16 16 17.7909 16 20C16 22.2091 14.2091 24 12 24C9.79086 24 8 22.2091 8 20C8 17.7909 9.79086 16 12 16Z" />
</svg>
